HIERARCHY
ROOT teapot2
{
	OFFSET 0.000000 0.000000 0.000000
	CHANNELS 6 Xposition Yposition Zposition Yrotation Xrotation Zrotation
	End Site
	{
		OFFSET 0.000000 0.000000 0.000000
	}
}
MOTION
Frames: 121
Frame Time: 0.008333334
2.399399 3.598458 2.808639 -40.369570 -0.423218 1.685746 
2.401778 3.598652 2.807231 -39.803160 -0.432221 1.636334 
2.403447 3.598619 2.807042 -39.459720 -0.394226 1.612962 
2.404272 3.598734 2.807121 -39.330900 -0.376190 1.591652 
2.404479 3.598733 2.807659 -39.345400 -0.374573 1.590802 
2.404360 3.598741 2.808378 -39.485660 -0.387543 1.583442 
2.404389 3.598955 2.809692 -39.684510 -0.358917 1.627343 
2.404545 3.598918 2.811395 -39.985140 -0.366425 1.653502 
2.405062 3.598820 2.813404 -40.352260 -0.394867 1.655012 
2.405309 3.598868 2.814941 -40.736760 -0.433502 1.622976 
2.405879 3.599010 2.817101 -41.123960 -0.366058 1.693112 
2.405823 3.599000 2.818853 -41.527920 -0.404450 1.691371 
2.406128 3.599323 2.820530 -41.922970 -0.353241 1.737595 
2.406182 3.599300 2.822068 -42.297550 -0.368927 1.767620 
2.405867 3.599566 2.823377 -42.668120 -0.371796 1.785486 
2.405996 3.599732 2.824674 -42.997280 -0.402741 1.812207 
2.405365 3.599622 2.825654 -43.331700 -0.478638 1.819268 
2.405292 3.599385 2.826519 -43.593750 -0.435486 1.834313 
2.404998 3.599518 2.826417 -43.812840 -0.382080 1.847081 
2.404391 3.599282 2.827011 -43.959870 -0.441437 1.833791 
2.404416 3.599708 2.827471 -44.083040 -0.389893 1.876116 
2.404372 3.599768 2.827482 -44.180820 -0.317444 1.902966 
2.404094 3.599770 2.827796 -44.265930 -0.344116 1.900958 
2.404091 3.599720 2.827827 -44.298550 -0.356751 1.892641 
2.404014 3.599740 2.827781 -44.325930 -0.319611 1.878440 
2.403632 3.599841 2.827823 -44.324950 -0.333099 1.902712 
2.403730 3.599761 2.827797 -44.338870 -0.317108 1.889551 
2.403764 3.599706 2.827893 -44.327030 -0.350891 1.888004 
2.403892 3.599613 2.827727 -44.340700 -0.309753 1.866813 
2.403868 3.599749 2.828077 -44.329380 -0.349548 1.887526 
2.404117 3.599755 2.828029 -44.316650 -0.333160 1.873521 
2.404263 3.599735 2.828295 -44.310850 -0.359650 1.877145 
2.404127 3.599754 2.828202 -44.322850 -0.345856 1.878204 
2.404106 3.599878 2.828054 -44.324220 -0.327362 1.858987 
2.404127 3.599712 2.827716 -44.335820 -0.326904 1.869926 
2.404065 3.599809 2.827498 -44.334110 -0.325592 1.866615 
2.403953 3.599749 2.827185 -44.333130 -0.340515 1.874104 
2.403964 3.599738 2.826839 -44.333400 -0.336609 1.873839 
2.403942 3.599690 2.826518 -44.331850 -0.352234 1.870188 
2.403913 3.599627 2.826161 -44.332280 -0.364410 1.879318 
2.403770 3.599585 2.825784 -44.348080 -0.361847 1.889068 
2.403955 3.599599 2.825612 -44.333770 -0.361084 1.881307 
2.403960 3.599528 2.825366 -44.331570 -0.353699 1.878166 
2.403800 3.599489 2.825265 -44.341860 -0.374481 1.888156 
2.403653 3.599344 2.825155 -44.334320 -0.399231 1.873764 
2.403700 3.599471 2.825251 -44.347660 -0.352539 1.900216 
2.403625 3.599367 2.825408 -44.342380 -0.393097 1.887921 
2.403977 3.599565 2.825696 -44.346920 -0.337555 1.880627 
2.403656 3.599643 2.825949 -44.328280 -0.417481 1.856856 
2.403845 3.599772 2.826270 -44.315340 -0.410797 1.840428 
2.404047 3.599933 2.826901 -44.326630 -0.351135 1.862546 
2.403937 3.599916 2.826944 -44.319820 -0.352539 1.852186 
2.403914 3.599791 2.827286 -44.322450 -0.357178 1.873540 
2.403975 3.599807 2.827813 -44.322630 -0.357971 1.866085 
2.403950 3.599830 2.828067 -44.325530 -0.367981 1.867651 
2.403915 3.599909 2.828387 -44.318820 -0.366516 1.874138 
2.403960 3.599951 2.828611 -44.327820 -0.351807 1.851605 
2.403914 3.600044 2.828815 -44.311580 -0.365845 1.867791 
2.403938 3.599996 2.829188 -44.317660 -0.370087 1.867066 
2.403961 3.599988 2.829199 -44.312770 -0.380646 1.865167 
2.404132 3.599687 2.830047 -44.335170 -0.383392 1.834854 
2.404511 3.599726 2.829979 -44.311610 -0.360992 1.841775 
2.404358 3.599850 2.829769 -44.304410 -0.382874 1.866373 
2.403986 3.599979 2.830479 -44.301210 -0.381439 1.865273 
2.404128 3.599873 2.831020 -44.295040 -0.363434 1.837072 
2.404328 3.599867 2.830560 -44.252040 -0.368652 1.846039 
2.403623 3.599983 2.829834 -44.135800 -0.359985 1.892758 
2.403317 3.600000 2.829483 -43.969210 -0.325592 1.845906 
2.403726 3.599562 2.828922 -43.695190 -0.382721 1.817462 
2.403671 3.599426 2.828032 -43.303040 -0.400360 1.794635 
2.404514 3.599934 2.826855 -42.702240 -0.385193 1.804950 
2.404482 3.599695 2.825675 -42.082980 -0.387390 1.731453 
2.404584 3.599243 2.823157 -41.336790 -0.424133 1.660031 
2.404626 3.599143 2.820823 -40.446930 -0.353088 1.619306 
2.404948 3.599440 2.818153 -39.457180 -0.453156 1.586097 
2.406095 3.599172 2.815386 -38.240390 -0.344940 1.562972 
2.406413 3.598962 2.812186 -36.991180 -0.476654 1.481859 
2.406655 3.598914 2.808914 -35.676700 -0.462952 1.416677 
2.407397 3.598817 2.805014 -34.221980 -0.465546 1.307312 
2.408190 3.598475 2.801404 -32.646850 -0.479248 1.209739 
2.409518 3.598608 2.798020 -31.040190 -0.401703 1.112336 
2.411687 3.598207 2.794446 -29.347050 -0.459137 1.041755 
2.412126 3.598249 2.791098 -27.631200 -0.427216 0.972346 
2.414084 3.598036 2.787851 -25.898440 -0.403046 0.876473 
2.415631 3.597799 2.783844 -24.059140 -0.509277 0.786762 
2.417252 3.597747 2.780941 -22.222440 -0.410126 0.722157 
2.418594 3.597436 2.777713 -20.351680 -0.427033 0.581331 
2.419574 3.597518 2.774118 -18.559230 -0.447022 0.465941 
2.421827 3.597006 2.771246 -16.621460 -0.306488 0.382479 
2.423333 3.597193 2.766566 -14.641360 -0.315857 0.316511 
2.423188 3.596833 2.762976 -12.776340 -0.267181 0.205746 
2.424619 3.596794 2.760775 -10.792270 -0.099731 0.170689 
2.424820 3.596313 2.756248 -8.784119 -0.020020 -0.032257 
2.425174 3.595929 2.752513 -6.702240 -0.108154 -0.074768 
2.425783 3.595827 2.749946 -4.687744 0.085062 -0.211121 
2.426567 3.595172 2.746452 -2.633606 0.030498 -0.325867 
2.427050 3.595074 2.743124 -0.526489 0.091571 -0.367127 
2.428045 3.594859 2.739208 1.557977 0.127904 -0.490295 
2.428214 3.594754 2.735079 3.753881 0.225175 -0.599884 
2.428550 3.594647 2.730808 5.905821 0.302505 -0.627686 
2.427942 3.594783 2.727145 8.082282 0.405239 -0.721863 
2.428540 3.594616 2.722934 10.335240 0.343693 -0.812866 
2.428313 3.594681 2.718825 12.562910 0.450855 -0.848328 
2.428438 3.594400 2.714266 14.751300 0.633022 -0.962616 
2.428748 3.594089 2.710020 17.052330 0.767102 -1.073944 
2.429008 3.593341 2.705938 19.331890 0.864165 -1.099335 
2.428878 3.593477 2.701378 21.585660 0.986901 -1.148621 
2.428306 3.593101 2.697189 23.925640 1.076399 -1.249603 
2.428773 3.592608 2.694101 26.208150 1.215378 -1.214264 
2.428431 3.592364 2.690218 28.480760 1.334154 -1.252441 
2.428463 3.592350 2.687110 30.752960 1.416362 -1.327087 
2.428273 3.592300 2.683242 33.005520 1.567749 -1.327942 
2.428288 3.592182 2.681148 35.154920 1.663034 -1.330872 
2.427894 3.591686 2.679130 37.262250 1.777807 -1.378784 
2.427759 3.591829 2.676866 39.289170 1.924261 -1.457489 
2.427644 3.592035 2.675272 41.253440 2.013926 -1.511017 
2.428089 3.591833 2.673977 43.172550 2.115009 -1.509583 
2.428496 3.592099 2.673216 44.956820 2.113659 -1.530975 
2.429203 3.592232 2.672568 46.610570 2.128496 -1.492615 
2.428943 3.592612 2.672346 48.013770 2.239431 -1.564545 
2.429684 3.592396 2.672666 49.311920 2.397852 -1.552032 
